<svg width="281" height="70" viewBox="0 0 281 70" fill="none" xmlns="http://www.w3.org/2000/svg">
<g clip-path="url(#clip0_52_8)">
<path fill-rule="evenodd" clip-rule="evenodd" d="M8.93939 55.7576L13.5354 43.2324L17.9293 55.7576H8.93939ZM22.4242 68.3839H26.6667L15.7071 38.1819H11.5152L0 68.3839H4.29293L7.67677 59.1415H19.1919L22.4242 68.3839ZM35.8586 57.9294C31.9192 57.0708 27.8788 56.1617 27.8788 51.4142C27.8788 47.2728 31.4141 44.6465 36.7172 44.6465C40.1515 44.6465 43.4343 45.9092 45.0505 49.0405L41.4646 50.5051C41.1616 49.6465 39.3434 47.5758 36.2626 47.5758C33.2323 47.5758 31.7172 49.3435 31.7172 50.9092C31.7172 53.0809 34.596 53.99 37.0202 54.495C42.0707 55.5051 46.5152 56.8182 46.5152 61.6162C46.5152 65.3536 43.2323 68.8384 36.9192 68.8384C32.2727 68.8384 28.9899 67.2728 27.3737 64.0405L31.4646 63.3334C32.4747 65.1011 34.3434 65.8586 37.0707 65.8586C40.5051 65.8586 42.4747 64.5455 42.4747 62.0708C42.5253 59.495 39.2424 58.6869 35.8586 57.9294V57.9294ZM55 45.3536H59.1919V48.5859H55V61.6162C55 64.3435 55 65.5051 56.6667 65.5051C57.3737 65.5051 58.4343 65.2021 59.1919 64.9496V68.1314C58.5354 68.2324 56.9192 68.5354 55.4546 68.5354C51.0101 68.5354 51.0101 66.3637 51.0606 63.3839V48.5859H47.4242V45.3536H51.0606V39.8991L55.0505 38.2324V45.3536H55ZM66.5152 45.4041V49.495C68.6869 45.1516 72.8283 45.0506 74.3434 45.0001V48.99C70.5556 49.0405 68.6869 49.798 67.4748 51.8182C66.4647 53.4849 66.5152 55.8081 66.5152 57.7778V68.3334H62.6768V45.4041H66.5152ZM118.889 38.1819V41.9698L101.818 64.7475H119.343V68.3839H97.1717V64.4445L114.343 41.9193H97.1717V38.1819H118.889ZM147.273 45.6061V48.9395C149.394 45.2021 153.081 44.8486 154.444 44.8486C157.374 44.8486 160.859 46.3132 161.97 50.1011C162.374 51.4647 162.374 52.8789 162.374 54.798V68.3839H158.535V55.4041C158.535 53.0809 158.535 52.4243 158.283 51.6162C157.626 49.4445 155.455 48.4849 153.384 48.4849C151.667 48.4849 150.202 49.0405 148.99 50.2021C147.273 51.9193 147.273 53.6364 147.273 55.3536V68.3839H143.434V45.6061H147.273ZM206.667 64.293C205.253 66.5657 202.626 68.8384 197.929 68.8384C189.798 68.8384 186.768 62.5758 186.768 56.9698C186.768 50.5051 190.303 44.596 197.626 44.596C200.505 44.596 204.495 45.4546 206.717 49.1415L203.131 50.6566C202.475 49.1415 200.96 47.4243 197.778 47.4243C191.465 47.4243 191.061 54.6465 191.061 56.6667C191.061 64.2425 195.404 65.8586 197.98 65.8586C200.96 65.8586 202.475 64.4445 203.283 62.8789L206.667 64.293ZM124.848 54.5455H137.02C136.667 48.5354 133.232 47.5253 130.909 47.5253C127.576 47.5253 125.253 49.9496 124.848 54.5455ZM140.152 64.0405C138.838 66.2627 136.313 68.8384 131.313 68.8384C124.545 68.8384 120.657 64.2425 120.657 56.5152C120.657 47.8789 126.364 44.596 131.162 44.596C135.354 44.596 139.394 46.9193 140.758 52.6768C141.212 54.596 141.212 56.3637 141.212 57.3233H124.747C124.646 61.1617 126.263 66.0102 131.667 65.9092C133.889 65.8586 135.455 64.8485 136.414 63.2829L140.152 64.0405ZM168.586 54.5455H180.758C180.404 48.5354 176.97 47.5253 174.646 47.5253C171.364 47.5253 169.04 49.9496 168.586 54.5455ZM183.939 64.0405C182.626 66.2627 180.101 68.8384 175.101 68.8384C168.333 68.8384 164.444 64.2425 164.444 56.5152C164.444 47.8789 170.152 44.596 174.95 44.596C179.141 44.596 183.182 46.9193 184.545 52.6768C185 54.596 185 56.3637 185 57.3233H168.535C168.434 61.1617 170.051 66.0102 175.455 65.9092C177.677 65.8586 179.242 64.8485 180.202 63.2829L183.939 64.0405ZM227.677 68.3839H223.687C223.687 68.3839 223.333 66.7677 223.232 65.0001C222.071 66.2122 219.899 68.6869 215.556 68.6869C211.111 68.6869 207.778 66.0607 207.778 62.1718C207.778 60.9597 208.131 59.7475 208.788 58.7374C210.101 56.8182 212.525 55.2526 219.343 54.697L222.98 54.394V53.7879C222.98 51.4142 222.98 47.4243 217.879 47.4243C214.646 47.4243 213.586 48.99 213.182 50.4041L209.646 48.9395C209.697 48.7879 209.747 48.6869 209.848 48.5859C211.212 46.0607 213.889 44.495 217.727 44.495C219.849 44.495 222.626 45.0506 224.394 46.4142C226.97 48.3334 226.869 52.1718 226.869 52.1718L227.02 63.9395C227.071 64.0405 227.222 67.4243 227.677 68.3839V68.3839ZM222.424 62.0708C223.03 60.8081 223.03 60.2526 223.03 56.9193C221.515 57.1718 219.495 57.4748 217.02 57.9799C212.778 58.889 212.02 60.5051 212.02 62.1213C212.02 63.9395 213.485 65.5051 216.313 65.5051C219.04 65.5051 221.313 64.4445 222.424 62.0708V62.0708ZM94.3939 68.3839H90.404C90.404 68.3839 90.0505 66.7677 89.9495 65.0001C88.7879 66.2122 86.6162 68.6869 82.2727 68.6869C77.8283 68.6869 74.495 66.0607 74.495 62.1718C74.495 60.9597 74.8485 59.7475 75.5051 58.7374C76.8182 56.8182 79.2424 55.2526 86.0606 54.697L89.697 54.394V53.7879C89.697 51.4142 89.697 47.4243 84.596 47.4243C81.3636 47.4243 80.303 48.99 79.899 50.4041L76.3636 48.9395C76.4141 48.8385 76.4647 48.6869 76.5657 48.5859C77.9293 46.0607 80.6061 44.495 84.4444 44.495C86.5657 44.495 89.3434 45.0506 91.1111 46.4142C93.6869 48.3334 93.5859 52.1718 93.5859 52.1718L93.7374 63.9395C93.7879 64.0405 93.9394 67.4243 94.3939 68.3839V68.3839ZM89.1414 62.0708C89.7475 60.8081 89.7475 60.2526 89.7475 56.9193C88.2323 57.1718 86.2121 57.4748 83.7374 57.9799C79.495 58.889 78.7374 60.5051 78.7374 62.1213C78.7374 63.9395 80.202 65.5051 83.0303 65.5051C85.7576 65.5051 88.0303 64.4445 89.1414 62.0708V62.0708Z" fill="#E5E4F5"/>
<path fill-rule="evenodd" clip-rule="evenodd" d="M280.303 36.6162C280.303 36.4647 280.253 36.3132 280.253 36.2122C280.202 35.9091 280.101 35.6566 280 35.4041C279.899 35.1011 279.747 34.8485 279.596 34.596C279.444 34.293 279.242 34.0404 279.04 33.7374C278.939 33.5859 278.788 33.4344 278.636 33.2829C278.485 33.1314 278.333 32.9798 278.131 32.8283C277.727 32.5253 277.374 32.2223 276.919 31.9192C275.96 31.3637 275.05 30.7576 274.04 30.3031C272.828 29.7475 271.667 29.1415 270.404 28.6869L262.02 25.7576C262.02 24.1415 262.071 22.5758 262.02 20.9596C261.97 18.5859 261.818 16.2122 261.667 13.8384C261.515 12.1718 261.364 10.5556 261.061 8.88894C260.859 7.62631 260.556 6.36369 260.252 5.10106C260.202 4.79803 260.101 4.54551 260 4.24248C259.848 3.73743 259.646 3.28288 259.394 2.82834C259.192 2.4748 258.99 2.12126 258.737 1.76773C258.434 1.36369 258.081 1.01015 257.677 0.757629C257.475 0.606113 257.222 0.454598 257.02 0.353588C256.818 0.252578 256.616 0.202073 256.414 0.151568C256.111 0.0505581 255.808 0.0505581 255.455 5.30161e-05C254.697 -0.050452 253.99 0.0505581 253.283 0.303083C253.03 0.404093 252.778 0.505103 252.525 0.656618C251.97 0.959649 251.414 1.31318 250.859 1.66672C250.404 2.02025 249.899 2.37379 249.495 2.77783C247.727 4.4445 246.01 6.11116 244.293 7.82833C243.384 8.73742 242.525 9.69702 241.717 10.7071C238.485 14.6465 235.253 18.5859 232.121 22.6263C230.758 24.394 229.495 26.3132 228.182 28.1819C227.879 28.6364 227.576 29.1415 227.273 29.6465C226.818 30.5051 226.313 31.3637 225.909 32.2728C225.808 32.5253 225.707 32.7273 225.606 32.9798C225.505 33.2324 225.455 33.4344 225.404 33.6869C225.303 34.091 225.253 34.5455 225.253 35C225.253 35.1011 225.303 35.2021 225.303 35.3031C225.354 35.4041 225.404 35.5051 225.455 35.6061C225.606 35.8081 225.758 36.0606 225.909 36.2122C226.111 36.4142 226.313 36.6162 226.566 36.8182C226.818 37.0202 227.02 37.1718 227.273 37.3738C227.727 37.6768 228.182 37.9293 228.636 38.1819C228.838 38.2829 229.04 38.3839 229.242 38.4849C229.293 38.5354 229.091 38.4344 229.04 38.3839H229.091L229.444 38.5354C232.222 40 235 41.4142 237.778 42.8788C240.556 44.3435 243.333 45.8586 246.061 47.3738L252.222 50.8586C250.101 52.4748 247.879 54.0404 245.808 55.7071C245 56.3637 244.242 57.0707 243.535 57.7778C242.929 58.3839 242.374 58.9899 241.869 59.6465C241.465 60.1516 241.061 60.7071 240.707 61.2627C240.404 61.7172 240.202 62.1718 239.949 62.6263C239.798 62.9798 239.646 63.3334 239.545 63.7374C239.444 63.9899 239.394 64.293 239.343 64.5455C239.293 64.697 239.293 64.899 239.293 65.0505V65.2021V65.6566C239.343 66.1616 239.444 66.7172 239.697 67.1717C239.747 67.2728 239.798 67.3738 239.899 67.4748C240.05 67.6768 240.202 67.8788 240.354 68.0303C240.505 68.1818 240.707 68.3334 240.909 68.4849C241.111 68.6364 241.313 68.7374 241.515 68.8889C241.717 68.9899 241.97 69.0909 242.172 69.1919C242.374 69.293 242.626 69.394 242.879 69.4445C243.737 69.6465 244.596 69.798 245.505 69.9495C245.909 70 246.364 70.0505 246.818 70C248.333 69.899 249.798 69.7475 251.263 69.495C252.98 69.2425 254.697 68.8384 256.414 68.4849C258.434 68.0303 260.455 67.5758 262.424 67.0707C263.838 66.7172 265.253 66.3637 266.616 65.8081C267.677 65.3536 268.737 64.9495 269.798 64.495C270.05 64.394 270.253 64.2425 270.455 64.1414C270.657 64.0404 270.859 63.8889 271.061 63.7374C271.212 63.6364 271.414 63.4849 271.515 63.3334C271.616 63.2324 271.768 63.0808 271.869 62.9293C272.02 62.6768 272.172 62.4243 272.222 62.1718C272.273 61.9192 272.273 61.6667 272.222 61.4647C272.172 61.2122 272.071 61.0101 271.97 60.8081C271.869 60.6061 271.717 60.4041 271.566 60.2526C271.263 59.9495 270.96 59.6465 270.606 59.4445C270.455 59.3435 270.303 59.2425 270.152 59.1415C269.04 58.4849 267.98 57.8283 266.869 57.1718L262.222 54.4445C265.05 52.5253 267.879 50.6566 270.657 48.7374C271.869 47.9293 273.03 47.0202 274.141 46.1112C275.101 45.3031 276.01 44.495 276.919 43.6364C277.374 43.2324 277.727 42.7778 278.131 42.3233C278.333 42.1213 278.485 41.9192 278.636 41.6667C278.788 41.4647 278.939 41.2627 279.04 41.0606C279.394 40.3536 279.747 39.596 280.05 38.8889C280.151 38.5859 280.202 38.2324 280.303 37.9293C280.354 37.7778 280.353 37.6263 280.353 37.4748C280.353 37.3233 280.353 37.1718 280.353 37.0202C280.353 36.9192 280.303 36.7677 280.303 36.6162V36.6162ZM245.758 17.6768C247.323 16.0607 248.889 14.4445 250.505 12.8283C250.808 12.5253 251.111 12.2728 251.414 12.0203C251.515 11.9192 251.616 11.8182 251.768 11.7677C251.869 11.7172 251.919 11.6162 252.02 11.5657C252.071 11.5152 252.172 11.4647 252.222 11.4647C252.323 11.4142 252.374 11.4142 252.475 11.3637H252.727C252.828 11.3637 252.929 11.4142 252.98 11.4647C253.081 11.5152 253.182 11.6162 253.232 11.6667C253.283 11.7172 253.333 11.7677 253.333 11.8182C253.384 11.8687 253.434 11.9697 253.434 12.0203C253.535 12.2223 253.586 12.4243 253.636 12.6263C253.687 12.9293 253.788 13.2324 253.838 13.5354C253.939 14.293 254.04 15 254.141 15.7576C254.242 16.7172 254.343 17.6768 254.394 18.6364L254.848 23.7374L249.141 22.4243L243.838 21.5657L242.576 21.4647H242.172C243.384 20.2021 244.545 18.9394 245.758 17.6768V17.6768ZM242.172 24.798L242.222 24.7475H242.273H242.323L242.525 24.798L243.03 25L243.737 25.3031C245.556 26.0607 247.374 26.8687 249.192 27.6263C250.404 28.1314 251.616 28.6364 252.778 29.1415L255.151 30.1516L255.354 30.2526C255.505 32.1213 255.657 33.9899 255.758 35.8586C255.859 37.3233 255.859 38.7879 255.909 40.2526V40.8081C255.909 40.9091 255.909 41.0101 255.859 41.1112C255.859 41.2122 255.808 41.3132 255.808 41.4142C255.758 41.5152 255.758 41.6162 255.707 41.7172C255.657 41.8182 255.606 41.8687 255.556 41.9697C255.505 42.0202 255.505 42.0202 255.455 42.0708C255.404 42.1213 255.354 42.1213 255.303 42.1718C255.202 42.2223 255.101 42.2728 254.949 42.2728C254.798 42.3233 254.646 42.3233 254.495 42.2728C254.394 42.2728 254.343 42.2223 254.242 42.2223C254.141 42.2223 254.04 42.1718 253.99 42.1213C253.788 42.0202 253.636 41.9697 253.434 41.8687C253.232 41.7677 253.03 41.6162 252.879 41.5152C252.677 41.3637 252.475 41.2122 252.273 41.0606C252.071 40.8586 251.869 40.7071 251.667 40.5051C251.263 40.0505 250.859 39.596 250.455 39.1415C249.747 38.2829 249.04 37.4748 248.434 36.5657C247.626 35.3031 246.768 34.091 245.96 32.8283C245.455 32.0708 245 31.3132 244.596 30.5051L242.778 26.8687L242.374 25.7071L242.273 25.3536L242.222 25V24.7475L242.172 24.798ZM262.374 56.9192C262.879 57.2223 263.384 57.5253 263.838 57.8788C264.444 58.2829 265.101 58.6869 265.707 59.1415C266.162 59.4445 266.566 59.798 266.97 60.1516C267.172 60.3031 267.323 60.4546 267.475 60.6566C267.626 60.8081 267.727 60.9596 267.828 61.1111V61.1617V61.2627C267.828 61.2627 267.828 61.3132 267.778 61.3132L267.727 61.3637C267.677 61.3637 267.677 61.3637 267.626 61.4142C267.576 61.4142 267.525 61.4142 267.475 61.4142C265.05 61.6162 262.677 61.7677 260.252 61.9697L250.859 62.7273H250.556L250.707 62.5758L251.313 62.0707C252.525 61.1617 253.687 60.2021 254.949 59.3435L260.252 55.7576L262.374 56.9192ZM269.596 38.4344C269.545 38.6364 269.444 38.7879 269.343 38.9394C269.192 39.1415 268.99 39.293 268.838 39.495C268.434 39.8485 268.081 40.2021 267.626 40.5051C266.111 41.5657 264.646 42.6263 263.131 43.6869C262.071 44.394 261.01 45.0505 259.949 45.7576L253.788 49.697L251.162 48.1819L240 41.8182C237.475 40.3031 234.949 38.8384 232.424 37.2728C231.97 36.9697 231.515 36.6667 231.061 36.3132C230.909 36.2122 230.808 36.1112 230.657 36.0101C230.606 35.9596 230.556 35.9596 230.505 35.9091C230.404 35.8081 230.303 35.7071 230.202 35.6566C230.101 35.5556 230 35.4041 229.949 35.2526C229.899 35.1516 229.899 35.1011 229.899 35C229.899 34.899 229.899 34.798 229.899 34.7475C229.949 34.5455 230 34.3435 230.101 34.192C230.354 33.7879 230.606 33.3839 230.96 33.0809C232.424 31.6162 233.889 30.1516 235.303 28.6364L239.192 24.6465L239.394 25.3031L239.848 26.4142L239.899 26.4647C240.909 28.2324 241.919 30.1011 242.98 31.8182C244.242 33.8384 245.606 35.8081 246.97 37.7273C247.626 38.6364 248.283 39.5455 248.99 40.4041C249.596 41.1617 250.252 41.9192 250.909 42.5758C251.515 43.1819 252.172 43.7374 252.828 44.293C253.182 44.5455 253.535 44.7475 253.889 45C254.242 45.2021 254.596 45.3536 254.949 45.4546C255.303 45.5556 255.657 45.6566 256.01 45.6566C256.414 45.7071 256.869 45.6566 257.273 45.5556C257.374 45.5051 257.525 45.5051 257.626 45.4546C257.727 45.4041 257.828 45.3536 257.929 45.3031C258.03 45.2526 258.131 45.2021 258.232 45.1011C258.384 45 258.535 44.8485 258.687 44.697C258.788 44.596 258.939 44.4445 259.04 44.293C259.192 44.1415 259.293 43.9394 259.394 43.7374C259.697 43.2324 259.949 42.7273 260.101 42.1718C260.303 41.5657 260.505 40.9596 260.606 40.3536C260.808 39.5455 261.01 38.6869 261.111 37.8788L261.616 33.0303C262.778 33.5859 263.939 34.0404 265.101 34.6465C266.212 35.2021 267.273 35.9091 268.333 36.5152C268.434 36.5657 268.586 36.6667 268.687 36.7677C268.838 36.9192 268.99 37.0202 269.141 37.1718C269.293 37.3233 269.394 37.5253 269.495 37.7273C269.545 37.8283 269.545 37.9293 269.596 38.0303V38.1819C269.646 38.3334 269.646 38.3839 269.596 38.4344V38.4344Z" fill="#E5E4F5"/>
</g>
<defs>
<clipPath id="clip0_52_8">
<rect width="280.354" height="70" fill="white"/>
</clipPath>
</defs>
</svg>
