<svg width="216" height="50" viewBox="0 0 216 50" fill="none" xmlns="http://www.w3.org/2000/svg">
<g clip-path="url(#clip0_52_33)">
<path fill-rule="evenodd" clip-rule="evenodd" d="M198.942 46.6124H195.862C195.15 46.6124 194.777 47.1431 194.777 48.1475C194.777 49.0984 195.147 49.6291 195.862 49.6291H207.697C208.451 49.6291 208.828 49.0984 208.828 48.1475C208.828 47.1431 208.451 46.6124 207.697 46.6124H198.942Z" fill="#E5E4F5"/>
<path fill-rule="evenodd" clip-rule="evenodd" d="M180.892 46.6124H177.819C177.118 46.6124 176.702 47.1431 176.702 48.1475C176.702 49.0984 177.118 49.6291 177.819 49.6291H189.643C190.383 49.6291 190.757 49.0984 190.757 48.1475C190.757 47.1431 190.383 46.6124 189.643 46.6124H180.892Z" fill="#E5E4F5"/>
<path fill-rule="evenodd" clip-rule="evenodd" d="M163.803 46.6124H160.725C159.975 46.6124 159.637 47.1431 159.637 48.1475C159.637 49.0984 159.975 49.6291 160.725 49.6291H172.557C173.311 49.6291 173.692 49.0984 173.692 48.1475C173.692 47.1431 173.311 46.6124 172.557 46.6124H163.803Z" fill="#E5E4F5"/>
<path fill-rule="evenodd" clip-rule="evenodd" d="M145.752 46.6124H142.693C141.939 46.6124 141.562 47.1431 141.562 48.1475C141.562 49.0984 141.939 49.6291 142.693 49.6291H154.489C155.244 49.6291 155.617 49.0984 155.617 48.1475C155.617 47.1431 155.244 46.6124 154.489 46.6124H145.752Z" fill="#E5E4F5"/>
<path fill-rule="evenodd" clip-rule="evenodd" d="M127.685 46.6124H124.618C123.871 46.6124 123.49 47.1431 123.49 48.1475C123.49 49.0984 123.871 49.6291 124.618 49.6291H136.418C137.169 49.6291 137.546 49.0984 137.546 48.1475C137.546 47.1431 137.169 46.6124 136.418 46.6124H127.685Z" fill="#E5E4F5"/>
<path fill-rule="evenodd" clip-rule="evenodd" d="M110.613 46.6124H107.553C106.799 46.6124 106.422 47.1431 106.422 48.1475C106.422 49.0984 106.799 49.6291 107.553 49.6291H119.35C120.104 49.6291 120.477 49.0984 120.477 48.1475C120.477 47.1431 120.104 46.6124 119.35 46.6124H110.613Z" fill="#E5E4F5"/>
<path fill-rule="evenodd" clip-rule="evenodd" d="M92.5449 46.6124H89.482C88.7314 46.6124 88.3543 47.1431 88.3543 48.1475C88.3543 49.0984 88.7314 49.6291 89.482 49.6291H101.282C102.068 49.6291 102.41 49.0984 102.41 48.1475C102.41 47.1431 102.068 46.6124 101.282 46.6124H92.5449Z" fill="#E5E4F5"/>
<path fill-rule="evenodd" clip-rule="evenodd" d="M74.4699 46.6124H71.4106C70.6564 46.6124 70.2794 47.1431 70.2794 48.1475C70.2794 49.0984 70.6564 49.6291 71.4106 49.6291H83.246C83.961 49.6291 84.3381 49.0984 84.3381 48.1475C84.3381 47.1431 83.961 46.6124 83.246 46.6124H74.4699Z" fill="#E5E4F5"/>
<path fill-rule="evenodd" clip-rule="evenodd" d="M57.4088 46.6124H54.3352C53.5882 46.6124 53.2147 47.1431 53.2147 48.1475C53.2147 49.0984 53.5882 49.6291 54.3352 49.6291H66.1421C66.8892 49.6291 67.2698 49.0984 67.2698 48.1475C67.2698 47.1431 66.8927 46.6124 66.1421 46.6124H57.4088Z" fill="#E5E4F5"/>
<path fill-rule="evenodd" clip-rule="evenodd" d="M39.3054 46.6124H36.2674C35.5203 46.6124 35.1397 47.1431 35.1397 48.1475C35.1397 49.0984 35.5168 49.6291 36.2674 49.6291H48.0707C48.8213 49.6291 49.1984 49.0984 49.1984 48.1475C49.1984 47.1431 48.8213 46.6124 48.0707 46.6124H39.3054Z" fill="#E5E4F5"/>
<path fill-rule="evenodd" clip-rule="evenodd" d="M21.2553 46.6124H18.1959C17.4418 46.6124 17.0718 47.1431 17.0718 48.1475C17.0718 49.0984 17.4418 49.6291 18.1924 49.6291H30.0028C30.7499 49.6291 31.1234 49.0984 31.1234 48.1475C31.1234 47.1431 30.7534 46.6124 30.0028 46.6124H21.2553Z" fill="#E5E4F5"/>
<path fill-rule="evenodd" clip-rule="evenodd" d="M4.16924 46.6124H1.09567C0.345065 46.6124 0 47.1431 0 48.1475C0 49.0984 0.345065 49.6291 1.09567 49.6291H12.9346C13.6816 49.6291 14.0623 49.0984 14.0623 48.1475C14.0623 47.1431 13.6816 46.6124 12.9346 46.6124H4.16924Z" fill="#E5E4F5"/>
<path fill-rule="evenodd" clip-rule="evenodd" d="M0 10.0765H3.21586V14.4965C4.31865 12.8475 5.457 11.6828 6.63094 10.9277C8.15165 9.95717 9.91463 9.43504 11.718 9.42113C12.9168 9.42113 14.0623 9.65976 15.1651 10.1406C16.2323 10.625 17.1394 11.2696 17.8046 12.0995C18.4805 12.8867 19.0817 14.0478 19.5833 15.5294C20.6505 13.542 21.9917 12.0247 23.5605 10.9633C25.0929 9.95671 26.8858 9.42065 28.7186 9.42113C30.4582 9.42113 31.963 9.85922 33.2685 10.7532C34.5741 11.6472 35.5452 12.8902 36.214 14.4965C36.8508 16.0779 37.1496 18.4785 37.1496 21.6342V35.5533H33.9053V21.6342C33.9053 18.9202 33.7025 17.036 33.3361 16.0067C32.9578 14.9951 32.2659 14.1314 31.3618 13.542C30.4582 12.9116 29.3519 12.616 28.0819 12.616C26.551 12.6172 25.0609 13.1103 23.8308 14.0228C22.5573 14.9346 21.6252 16.2062 21.0205 17.7519C20.4513 19.3333 20.1489 21.9334 20.1489 25.5806V35.5533H16.9366V22.5282C16.9366 19.4366 16.773 17.3495 16.403 16.2453C16.0387 15.1786 15.3479 14.2539 14.4287 13.6026C13.4536 12.9345 12.2944 12.5884 11.1132 12.6124C9.64047 12.6124 8.27088 13.0505 6.96177 13.9837C5.69179 14.8741 4.7562 16.1064 4.11588 17.6487C3.51468 19.1944 3.21586 21.5594 3.21586 24.7507V35.5533H0V10.0765ZM56.2456 12.6872C53.5491 12.6872 51.2581 13.6916 49.3372 15.7396C47.4197 17.7626 46.4379 20.2273 46.4379 23.1408C46.4379 24.9858 46.879 26.7239 47.7541 28.3587C48.6292 29.9614 49.8067 31.208 51.3257 32.0735C52.8091 32.9426 54.4242 33.3914 56.2456 33.3914C57.9922 33.3914 59.6464 32.9426 61.1263 32.0735C62.6411 31.1961 63.8778 29.9085 64.6943 28.3587C65.573 26.7239 66.0141 24.9858 66.0141 23.1408C66.0141 20.2238 65.0323 17.7626 63.1184 15.7396C61.1974 13.6916 58.9065 12.6872 56.2456 12.6872V12.6872ZM56.2456 9.42113C60.084 9.42113 63.2785 10.8814 65.8149 13.7308C68.1378 16.3664 69.2798 19.458 69.2798 23.0767C69.2798 26.6598 68.0596 29.8083 65.6014 32.4903C63.1753 35.2043 60.0484 36.5613 56.2456 36.5613C52.4036 36.5613 49.2696 35.2078 46.847 32.4903C44.4491 29.9485 43.1326 26.5727 43.1758 23.0767C43.1758 19.5007 44.3213 16.4056 46.6407 13.7664C49.17 10.8814 52.368 9.42113 56.2456 9.42113V9.42113ZM87.5362 12.7513C85.7077 12.7513 84.0606 13.2001 82.5452 14.0941C81.0084 15.0201 79.8345 16.2667 78.9273 17.93C78.0487 19.5613 77.5755 21.278 77.5755 23.0767C77.5755 24.911 78.0487 26.6455 78.9273 28.2696C79.8345 29.9294 81.0475 31.2116 82.5701 32.1376C84.1211 33.0281 85.7397 33.5231 87.5006 33.5231C89.2544 33.5231 90.9513 33.0316 92.5307 32.1376C94.0889 31.233 95.3055 29.9864 96.1806 28.4406C97.0237 26.8841 97.4257 25.1282 97.4257 23.18C97.4257 20.2166 96.4865 17.727 94.5513 15.7538C93.6604 14.7853 92.5745 14.017 91.3653 13.4994C90.1561 12.9819 88.851 12.7269 87.5362 12.7513V12.7513ZM100.4 0.37085V35.9059H97.2264V31.4859C95.9941 33.0491 94.4523 34.3405 92.6979 35.2791C90.9766 36.1291 89.0819 36.568 87.1627 36.5613C83.6231 36.5613 80.5744 35.2399 78.0736 32.59C75.5799 29.9614 74.2992 26.7844 74.2992 22.9805C74.2992 19.3084 75.5799 16.1314 78.1127 13.5064C80.6456 10.8814 83.68 9.57072 87.2587 9.57072C89.322 9.57072 91.1754 10.0124 92.8331 10.9135C94.5264 11.8075 95.9814 13.1609 97.2264 14.9631V0.37085H100.4ZM128.948 20.3627C128.514 18.5925 127.859 17.2106 127.041 16.1314C126.164 15.0242 125.026 14.1527 123.729 13.5954C122.394 12.9385 120.926 12.6019 119.439 12.6124C116.952 12.6124 114.846 13.4174 113.035 15.0486C111.748 16.2311 110.752 18.0048 110.076 20.3627H128.948ZM128.948 27.3115L131.672 28.8075C130.895 30.4217 129.849 31.8912 128.578 33.1527C127.414 34.238 126.061 35.1 124.586 35.6958C123.128 36.2443 121.449 36.5613 119.574 36.5613C115.458 36.5613 112.221 35.1651 109.898 32.4297C107.578 29.6516 106.422 26.5458 106.422 23.0767C106.422 19.775 107.379 16.858 109.361 14.322C111.869 11.0524 115.223 9.42113 119.414 9.42113C123.704 9.42113 127.144 11.0916 129.73 14.4182C131.569 16.7832 132.487 19.7109 132.526 23.2512H109.759C109.841 26.243 110.752 28.7077 112.584 30.6168C113.437 31.5447 114.476 32.2817 115.634 32.7795C116.791 33.2772 118.04 33.5246 119.3 33.5053C120.605 33.5053 121.822 33.256 123.049 32.8037C124.28 32.3549 125.298 31.7352 126.155 30.9943C127.044 30.2428 127.959 29.0212 128.948 27.3115V27.3115ZM137.546 10.0765H140.925V13.8056C141.921 12.3382 143.006 11.2412 144.12 10.511C145.276 9.79867 146.421 9.42113 147.634 9.42113C148.577 9.42113 149.555 9.73812 150.598 10.2759L148.855 13.0505C148.311 12.792 147.723 12.6431 147.122 12.6124C146.002 12.6124 144.924 13.0505 143.92 13.9445C142.864 14.8349 142.099 16.2453 141.551 18.1295C141.135 19.572 140.925 22.5282 140.925 26.9483V35.5533H137.546V10.0765ZM154.617 10.0765H157.712V14.6355C158.943 12.8902 160.352 11.5831 161.839 10.7283C163.338 9.86103 165.041 9.40982 166.773 9.42113C168.591 9.42113 170.188 9.8984 171.593 10.8672C172.984 11.8573 174.037 13.1609 174.695 14.7708C175.371 16.4199 175.695 18.9594 175.695 22.4498V35.5569H172.6V23.4115C172.6 20.4624 172.468 18.4963 172.244 17.5062C171.881 15.8251 171.205 14.5571 170.16 13.7023C169.146 12.8831 167.819 12.4343 166.147 12.4343C164.29 12.4343 162.597 13.0861 161.103 14.3933C159.598 15.7253 158.616 17.3459 158.164 19.255C157.876 20.5265 157.716 22.863 157.716 26.1896V35.5498H154.617V10.0765ZM194.962 12.616C193.169 12.616 191.511 13.0647 189.967 13.9694C188.439 14.9074 187.19 16.2397 186.353 17.8267C185.474 19.458 184.994 21.2104 184.994 23.0019C184.994 24.8504 185.474 26.585 186.353 28.2162C187.256 29.8902 188.469 31.1724 189.992 32.1127C191.55 33.0174 193.169 33.5053 194.922 33.5053C196.683 33.5053 198.373 33.0174 199.956 32.1163C201.511 31.2116 202.731 29.9614 203.61 28.3943C204.446 26.8378 204.848 25.0641 204.848 23.1159C204.848 20.124 203.908 17.6237 202.016 15.6399C201.118 14.6681 200.026 13.8964 198.81 13.3748C197.595 12.8532 196.284 12.5935 194.962 12.6124V12.616ZM207.825 10.0872V35.8988H204.648V31.4467C203.297 33.1563 201.774 34.41 200.12 35.2791C198.399 36.1291 196.504 36.568 194.585 36.5613C191.045 36.5613 187.996 35.2399 185.499 32.565C182.998 29.9294 181.721 26.7239 181.721 22.8986C181.721 19.2194 183.002 16.0174 185.535 13.3782C188.075 10.739 191.109 9.42469 194.688 9.42469C196.744 9.42469 198.601 9.87346 200.255 10.7781C201.952 11.6792 203.407 13.0398 204.648 14.8385V10.08L207.825 10.0872ZM213.321 12.2954H213.723C213.937 12.2954 214.075 12.2954 214.139 12.2206C214.182 12.198 214.217 12.164 214.241 12.1224C214.264 12.0809 214.276 12.0335 214.275 11.9856C214.269 11.9217 214.247 11.8604 214.211 11.8075C214.178 11.7513 214.131 11.7046 214.075 11.6721C214.004 11.6721 213.862 11.6472 213.698 11.6472H213.321V12.2954ZM212.973 13.542V11.3551H213.698C213.972 11.3551 214.139 11.3551 214.275 11.3943C214.374 11.4691 214.488 11.5332 214.552 11.6436C214.62 11.7296 214.655 11.8368 214.652 11.9464C214.654 12.0233 214.641 12.0999 214.612 12.1715C214.584 12.2431 214.542 12.3083 214.488 12.3631C214.348 12.478 214.18 12.552 214.001 12.5768C214.114 12.6124 214.139 12.6516 214.214 12.6765C214.275 12.7905 214.374 12.9258 214.513 13.1289L214.79 13.542H214.349L214.171 13.2001C214.001 12.9258 213.897 12.7513 213.801 12.6765C213.723 12.6516 213.624 12.6124 213.52 12.6124H213.321V13.5385L212.973 13.542ZM213.833 10.7033C213.541 10.7058 213.255 10.787 213.005 10.9384C212.738 11.0763 212.523 11.2976 212.393 11.5688C212.229 11.8273 212.146 12.1285 212.154 12.4343C212.151 12.7284 212.234 13.017 212.393 13.2642C212.521 13.5363 212.737 13.7581 213.005 13.8946C213.289 14.0727 213.56 14.1333 213.833 14.1333C214.136 14.1413 214.433 14.0582 214.687 13.8946C214.959 13.7602 215.177 13.5381 215.306 13.2642C215.447 13.0093 215.527 12.7253 215.541 12.4343C215.532 12.1314 215.451 11.8349 215.306 11.5688C215.164 11.3043 214.949 11.0857 214.687 10.9384C214.43 10.7823 214.134 10.7009 213.833 10.7033V10.7033ZM213.833 10.422C214.176 10.4253 214.514 10.4993 214.826 10.6392C215.151 10.8051 215.414 11.0693 215.58 11.3943C215.794 11.7077 215.854 12.0568 215.854 12.4343C215.854 12.7905 215.797 13.1289 215.619 13.4423C215.428 13.7504 215.17 14.012 214.865 14.2081C214.548 14.3634 214.2 14.4442 213.848 14.4442C213.495 14.4442 213.147 14.3634 212.83 14.2081C212.528 14.0115 212.272 13.7499 212.083 13.4423C211.916 13.1333 211.832 12.7857 211.841 12.4343C211.841 12.0568 211.905 11.7077 212.08 11.3943C212.265 11.0866 212.521 10.8277 212.827 10.6392C213.146 10.5066 213.488 10.4341 213.833 10.4255V10.422Z" fill="#E5E4F5"/>
</g>
<defs>
<clipPath id="clip0_52_33">
<rect width="216" height="50" fill="white"/>
</clipPath>
</defs>
</svg>
