<svg width="200" height="34" viewBox="0 0 200 34" fill="none" xmlns="http://www.w3.org/2000/svg">
<path d="M38.4415 32.8806V29.1218V4.84183V1.08301H30.3143V4.84183V29.1218V32.8806H38.4415Z" fill="#E5E4F5"/>
<path d="M109.453 17.0325C109.453 22.2136 108.03 26.2772 105.287 29.2233C102.443 32.1694 98.5826 33.5917 93.6047 33.5917C88.6268 33.5917 84.6648 32.1694 81.9219 29.2233C79.0773 26.2772 77.7567 22.2136 77.7567 17.0325C77.7567 11.7499 79.1789 7.68628 81.9219 4.74018C84.6648 1.79408 88.6268 0.371826 93.7063 0.371826C98.7857 0.371826 102.646 1.79408 105.491 4.74018C108.132 7.58469 109.453 11.7499 109.453 17.0325ZM101.732 17.0325C101.732 13.6801 101.021 11.0387 99.5985 9.10854C98.1762 7.17834 96.1444 6.16244 93.6047 6.16244C90.9634 6.16244 89.0331 7.17834 87.6109 9.10854C86.1886 11.0387 85.4775 13.6801 85.4775 17.0325C85.4775 20.385 86.1886 22.9247 87.6109 24.9565C89.0331 26.8867 91.0649 27.9026 93.6047 27.9026C96.1444 27.9026 98.1762 26.8867 99.5985 24.9565C101.021 22.9247 101.732 20.2834 101.732 17.0325Z" fill="#E5E4F5"/>
<path d="M127.028 23.9407L134.545 1.08301H142.672L131.802 32.8806H122.355L111.484 1.08301H119.612L127.028 23.9407Z" fill="#E5E4F5"/>
<path d="M1.15804 32.3726V26.0741C4.71368 27.1915 7.86296 27.6995 10.6059 27.6995C14.4663 27.6995 16.2949 26.6836 16.2949 24.6518C16.2949 23.9407 15.9901 23.2295 15.4822 22.7216C14.8727 22.2136 13.4504 21.4009 11.1138 20.4866C6.94866 18.7596 4.20573 17.2357 2.88507 16.0167C1.25963 14.3912 0.446915 12.3594 0.446915 9.92129C0.446915 6.77201 1.66599 4.33385 4.10414 2.70842C6.44071 1.08298 9.58999 0.270264 13.4504 0.270264C15.5838 0.270264 19.0378 0.575033 22.8982 1.38775V6.97518C19.8505 6.16247 16.9044 5.65452 14.3647 5.65452C10.8091 5.65452 8.98045 6.67042 8.98045 8.60062C8.98045 9.31175 9.38681 9.92129 10.0979 10.4292C10.7075 10.8356 12.3329 11.6483 15.0758 12.8674C18.9362 14.5944 21.5776 16.1183 22.8982 17.3373C24.4221 18.8612 25.2348 20.7914 25.2348 23.2295C25.2348 26.6836 23.711 29.3249 20.7649 31.1535C18.3267 32.6774 15.1774 33.3885 11.317 33.3885C7.76137 33.4901 4.5105 33.1853 1.15804 32.3726V32.3726Z" fill="#E5E4F5"/>
<path d="M44.5369 32.8806V1.08301H54.6958L65.9723 22.3153V1.08301H72.2708V32.8806H62.7214L50.8354 11.242V32.8806H44.5369Z" fill="#E5E4F5"/>
<path d="M155.473 10.0229L148.057 32.8806H139.93L150.8 1.08301H160.248L171.118 32.8806H162.99L155.473 10.0229Z" fill="#E5E4F5"/>
<path d="M198.852 26.6836C196.413 27.3947 192.655 27.8011 191.232 27.8011C187.88 27.8011 185.239 26.7852 183.308 24.855C181.277 22.9248 180.362 20.2834 180.362 17.0326C180.362 13.7817 181.378 11.242 183.308 9.21016C185.239 7.17837 187.778 6.16247 191.029 6.16247C192.35 6.16247 195.398 6.36565 198.953 7.58473V1.79412C198.14 1.48935 197.023 1.18458 195.804 0.981398C194.28 0.676629 192.553 0.47345 190.623 0.47345C185.137 0.47345 180.769 1.99729 177.518 5.04499C174.267 8.09268 172.641 12.1563 172.641 17.3373C172.641 22.4168 174.267 26.4804 177.518 29.3249C180.769 32.271 185.137 33.6933 190.826 33.6933C192.553 33.6933 194.178 33.5917 195.702 33.2869C196.921 33.0837 198.039 32.8806 199.156 32.5758V26.6836H198.852Z" fill="#E5E4F5"/>
</svg>
