<svg width="184" height="75" viewBox="0 0 184 75" fill="none" xmlns="http://www.w3.org/2000/svg">
<path d="M4.32661 30.1144C6.45937 22.322 15.3414 20.4676 23.5191 20.2383C30.2416 20.0501 37.7373 20.9385 37.7373 20.9385L34.2154 33.8075C34.2154 33.8075 26.7197 32.9191 19.9971 33.1075C11.8195 33.3366 2.93725 35.1912 0.804672 42.9834L4.32661 30.1144Z" fill="#E5E4F5"/>
<path d="M117.488 16.4132C106.722 16.4132 103.964 26.8265 102.42 32.4662L90.9203 74.4791H97.6296L107.826 37.2267H114.794L110.155 54.1775H116.864L122.428 33.8492H108.751C109.451 31.2869 110.199 28.5573 110.808 26.3317C111.933 22.2212 113.77 19.2364 116.443 19.3366C119.396 19.4475 117.893 21.3857 117.489 22.8635C116.929 24.9081 118.44 26.9639 121.087 26.9639C126.836 26.9639 128.254 16.4132 117.488 16.4132V16.4132ZM79.428 23.7647V23.7651L71.1048 54.1777H78.0991L81.1813 42.9154H87.257C93.9611 42.9154 98.4102 39.2177 99.6133 34.0775C100.737 29.278 97.9316 23.7647 90.4193 23.7647H79.428ZM85.4432 27.3434H88.1327C90.9481 27.3434 93.1821 29.596 92.6426 33.5161C92.1426 37.1499 88.1943 39.3282 84.7517 39.3282H82.1631L85.4432 27.3434ZM151.772 33.2336C145.89 33.2336 141.648 38.2901 140.63 43.3434C139.651 48.1994 142.438 54.6526 150.109 54.6526C155.562 54.6526 158.304 52.2532 158.304 52.2532L157.049 49.1571C157.049 49.1571 154.756 51.0218 151.563 51.0218C148.369 51.0218 146.365 48.5021 146.808 44.4868H159.851C160.783 42.1223 161.294 33.2336 151.772 33.2336V33.2336ZM177.77 33.5069C173.395 33.5069 170.816 38.0215 170.816 38.0215L171.958 33.8495H165.249L159.685 54.1777H166.394C166.394 54.1777 168.01 48.2384 168.832 45.2733C170.102 40.6382 172.69 37.7359 173.935 37.6171C175.373 37.4798 175.236 40.9436 178.041 40.9436C182.296 40.9436 183.214 33.5069 177.77 33.5069H177.77ZM124.956 33.8495L124.031 37.2272H132.536L119.166 54.1777H138.046L138.97 50.7998H129.377L142.746 33.8495H124.956ZM151.746 36.5901V36.5905C155.394 36.5905 154.564 41.4041 154.564 41.4041L147.256 41.3871C147.256 41.3871 148.468 36.5901 151.746 36.5901ZM55.3603 54.225C31.2999 52.7256 3.33976 40.3224 4.32662 30.1144L1.0071 42.244C5.13057e-06 52.6591 25.9371 65.0243 51.8384 67.094L55.3603 54.225Z" fill="#E5E4F5"/>
<path d="M64.1042 37.5006C61.9714 45.2932 53.0893 47.1476 44.9116 47.3766C38.1891 47.565 30.6935 46.6765 30.6935 46.6765L34.2154 33.8075C34.2154 33.8075 41.7108 34.6959 48.4338 34.5076C56.6113 34.2784 65.4935 32.424 67.6261 24.6316L64.1042 37.5006Z" fill="#E5E4F5"/>
<path d="M13.0704 13.3899C37.1308 14.8893 65.091 27.2926 64.1041 37.5007L67.4236 25.3709C68.4305 14.9558 42.4937 2.59065 16.5926 0.520935L13.0704 13.3899Z" fill="#E5E4F5"/>
</svg>
